<svg xmlns="http://www.w3.org/2000/svg" width="93" height="93" viewBox="0 0 93 93">
  <g id="Group_26285" data-name="Group 26285" transform="translate(-794 -6191)">
    <g id="_017-amazon" data-name="017-amazon" transform="translate(798.455 6195)">
      <circle id="Ellipse_385" data-name="Ellipse 385" cx="42.5" cy="42.5" r="42.5" transform="translate(-0.455)" fill="#f3f2f2"/>
      <g id="Group_25440" data-name="Group 25440" transform="translate(11.082 46.766)">
        <path id="Path_67080" data-name="Path 67080" d="M86.372,263.94a18.626,18.626,0,0,1-10.52,3.217A19.044,19.044,0,0,1,63,262.254c-.266-.239-.028-.569.292-.382a25.877,25.877,0,0,0,12.859,3.411,25.587,25.587,0,0,0,9.808-2.007C86.44,263.073,86.843,263.593,86.372,263.94Z" transform="translate(-62.886 -261.306)" fill="#f7981d"/>
        <path id="Path_67081" data-name="Path 67081" d="M183.362,260.269c-.364-.465-2.406-.22-3.323-.112-.276.034-.32-.208-.07-.384,1.628-1.144,4.3-.814,4.607-.43s-.082,3.06-1.609,4.338c-.235.2-.458.09-.352-.169C182.957,262.654,183.726,260.734,183.362,260.269Z" transform="translate(-158.693 -258.985)" fill="#f7981d"/>
      </g>
      <path id="Path_67082" data-name="Path 67082" d="M180.178,212.278v-1.111a.275.275,0,0,1,.282-.282h4.98a.279.279,0,0,1,.288.282v.951a1.557,1.557,0,0,1-.375.7l-2.58,3.683a5.528,5.528,0,0,1,2.84.61.51.51,0,0,1,.266.434v1.187c0,.163-.178.352-.367.255a5.732,5.732,0,0,0-5.263.009c-.174.092-.355-.093-.355-.258V217.61a1.335,1.335,0,0,1,.186-.764l2.989-4.288h-2.6A.276.276,0,0,1,180.178,212.278Z" transform="translate(-148.093 -172.804)"/>
      <path id="Path_67083" data-name="Path 67083" d="M72.748,218.575H71.233a.282.282,0,0,1-.27-.255v-7.778a.286.286,0,0,1,.293-.28h1.411a.284.284,0,0,1,.276.261v1.016h.028a2.082,2.082,0,0,1,3.961,0,2.238,2.238,0,0,1,3.847-.589,4.131,4.131,0,0,1,.382,2.438l0,4.908a.285.285,0,0,1-.292.28H79.354a.284.284,0,0,1-.272-.278v-4.124a9.964,9.964,0,0,0-.043-1.457.789.789,0,0,0-.891-.67,1,1,0,0,0-.905.639,4.7,4.7,0,0,0-.141,1.489V218.3a.286.286,0,0,1-.293.28H75.295a.284.284,0,0,1-.272-.278l0-4.124c0-.867.143-2.144-.933-2.144s-1.047,1.243-1.047,2.144V218.3A.284.284,0,0,1,72.748,218.575Z" transform="translate(-58.594 -172.16)"/>
      <path id="Path_67084" data-name="Path 67084" d="M220.475,210.1c2.247,0,3.464,1.931,3.464,4.386,0,2.373-1.343,4.255-3.464,4.255-2.208,0-3.41-1.93-3.41-4.336C217.065,211.979,218.282,210.1,220.475,210.1Zm.013,1.587c-1.118,0-1.188,1.523-1.188,2.471s-.014,2.978,1.174,2.978c1.173,0,1.228-1.637,1.228-2.634a7.194,7.194,0,0,0-.226-2.063A.947.947,0,0,0,220.489,211.685Z" transform="translate(-178.64 -172.16)"/>
      <path id="Path_67085" data-name="Path 67085" d="M263.189,218.575h-1.509a.283.283,0,0,1-.27-.278l0-7.781a.289.289,0,0,1,.292-.253H263.1a.287.287,0,0,1,.269.218v1.189h.029a2.06,2.06,0,0,1,2.064-1.571,1.986,1.986,0,0,1,1.768.915,4.953,4.953,0,0,1,.4,2.422v4.894a.287.287,0,0,1-.289.245H265.82a.285.285,0,0,1-.27-.245v-4.222c0-.852.1-2.1-.947-2.1a.99.99,0,0,0-.876.622,3.439,3.439,0,0,0-.241,1.474v4.187A.291.291,0,0,1,263.189,218.575Z" transform="translate(-215.07 -172.16)"/>
      <ellipse id="Ellipse_386" data-name="Ellipse 386" cx="0.745" cy="0.708" rx="0.745" ry="0.708" transform="translate(53.459 45.091)"/>
      <path id="Path_67086" data-name="Path 67086" d="M388.76,218.365a.284.284,0,0,1-.281-.28v-7.779a.284.284,0,0,1,.27-.255h.557a.286.286,0,0,1,.29.255v1.134a2.383,2.383,0,0,1,2.064-1.6h.115a2.1,2.1,0,0,1,1.98,1.788A2.5,2.5,0,0,1,396,209.839h.115a2.1,2.1,0,0,1,1.811,1.195,5.371,5.371,0,0,1,.339,2.374v4.68a.284.284,0,0,1-.272.279h-.666a.286.286,0,0,1-.278-.241v-4.717a4.058,4.058,0,0,0-.2-1.653,1.367,1.367,0,0,0-1.145-.866,1.756,1.756,0,0,0-1.328.932,3.538,3.538,0,0,0-.4,2.061v4.245a.289.289,0,0,1-.269.239h-.662a.286.286,0,0,1-.284-.28l0-4.991a3.19,3.19,0,0,0-.24-1.407,1.415,1.415,0,0,0-1.144-.8,1.77,1.77,0,0,0-1.246.815,3.315,3.315,0,0,0-.438,1.9v4.482a.284.284,0,0,1-.272.279h-.666v0Z" transform="translate(-319.604 -171.948)"/>
      <path id="Path_67087" data-name="Path 67087" d="M350.632,218.53c-2.15,0-3.113-2.193-3.113-4.387,0-2.307,1.132-4.3,3.3-4.3h.115c2.106,0,3.154,2.127,3.154,4.321,0,2.324-1.161,4.37-3.338,4.37h-.114Zm.158-1.065a1.813,1.813,0,0,0,1.6-1.193,5.185,5.185,0,0,0,.352-2.128,4.757,4.757,0,0,0-.451-2.274,1.636,1.636,0,0,0-3.07.2,5.441,5.441,0,0,0-.352,2.078,5.561,5.561,0,0,0,.41,2.275A1.794,1.794,0,0,0,350.79,217.465Z" transform="translate(-285.832 -171.948)"/>
      <path id="Path_67088" data-name="Path 67088" d="M313.544,217.428c.964-.03,1.47-.8,1.681-1.805a.292.292,0,0,1,.278-.222l.637,0a.275.275,0,0,1,.278.263c-.3,1.705-1.325,2.864-2.794,2.864h-.114c-2.135,0-3.055-2.145-3.055-4.321,0-2.16.933-4.37,3.07-4.37h.115c1.482,0,2.539,1.141,2.769,2.849a.282.282,0,0,1-.259.255l-.668-.008a.312.312,0,0,1-.252-.275c-.161-.953-.709-1.71-1.62-1.74-1.451.046-1.866,1.834-1.866,3.207C311.745,215.448,312.091,217.38,313.544,217.428Z" transform="translate(-255.373 -171.944)"/>
      <path id="Path_67089" data-name="Path 67089" d="M31.912,216.813a2.068,2.068,0,0,1-.573-1.4V213.05c0-1,.072-1.919-.665-2.609a3.441,3.441,0,0,0-2.283-.754c-1.443,0-3.051.538-3.389,2.321a.269.269,0,0,0,.227.317l1.468.158a.319.319,0,0,0,.264-.278,1.155,1.155,0,0,1,1.218-.91,1.015,1.015,0,0,1,.851.394,1.94,1.94,0,0,1,.183,1.1v.2a10.484,10.484,0,0,0-2.849.524,2.575,2.575,0,0,0-1.616,2.476,2.151,2.151,0,0,0,2.267,2.363,3,3,0,0,0,2.5-1.1,3.7,3.7,0,0,0,.868,1.009.314.314,0,0,0,.359-.036l0,0c.3-.27.853-.747,1.161-1.005A.287.287,0,0,0,31.912,216.813Zm-2.984-.681a1.229,1.229,0,0,1-1.048.689c-.582,0-.922-.443-.922-1.1,0-1.291,1.159-1.526,2.254-1.526v.328A2.972,2.972,0,0,1,28.928,216.132Z" transform="translate(-20.553 -171.823)"/>
      <path id="Path_67090" data-name="Path 67090" d="M141.915,216.813a2.068,2.068,0,0,1-.573-1.4V213.05c0-1,.072-1.919-.665-2.609a3.441,3.441,0,0,0-2.283-.754c-1.443,0-3.051.538-3.389,2.321a.269.269,0,0,0,.227.317l1.468.158a.319.319,0,0,0,.264-.278,1.155,1.155,0,0,1,1.218-.91,1.015,1.015,0,0,1,.851.394,1.94,1.94,0,0,1,.183,1.1v.2a10.485,10.485,0,0,0-2.849.524,2.575,2.575,0,0,0-1.616,2.476,2.151,2.151,0,0,0,2.267,2.363,3,3,0,0,0,2.5-1.1,3.7,3.7,0,0,0,.868,1.009.314.314,0,0,0,.359-.036l0,0c.3-.27.853-.747,1.161-1.005A.287.287,0,0,0,141.915,216.813Zm-2.984-.681a1.229,1.229,0,0,1-1.048.689c-.582,0-.922-.443-.922-1.1,0-1.291,1.159-1.526,2.254-1.526v.328A2.97,2.97,0,0,1,138.931,216.132Z" transform="translate(-111.003 -171.823)"/>
    </g>
    <g id="Ellipse_716" data-name="Ellipse 716" transform="translate(794 6191)" fill="none" stroke="#edf5e1" stroke-width="1">
      <circle cx="46.5" cy="46.5" r="46.5" stroke="none"/>
      <circle cx="46.5" cy="46.5" r="46" fill="none"/>
    </g>
  </g>
</svg>
