<svg xmlns="http://www.w3.org/2000/svg" xmlns:xlink="http://www.w3.org/1999/xlink" width="742.492" height="427.868" viewBox="0 0 742.492 427.868">
  <defs>
    <linearGradient id="linear-gradient" x1="0.5" y1="1" x2="0.5" gradientUnits="objectBoundingBox">
      <stop offset="0" stop-color="gray" stop-opacity="0.251"/>
      <stop offset="0.54" stop-color="gray" stop-opacity="0.122"/>
      <stop offset="1" stop-color="gray" stop-opacity="0.102"/>
    </linearGradient>
    <linearGradient id="linear-gradient-2" y1="1" y2="0" xlink:href="#linear-gradient"/>
  </defs>
  <g id="Group_28707" data-name="Group 28707" transform="translate(-0.003 -0.06)">
    <path id="Path_86392" data-name="Path 86392" d="M308.691,529.986c-44.891-15.511-96.219-28.641-138.161-6.351-5.316,2.825-10.554,6.382-13.418,11.674-7.565,13.924,4.46,31.98-1.4,46.7s-27.917,22.127-26.111,37.848c.475,4.109,2.7,7.83,5.323,11.036,16.43,20.072,46.549,22.1,72.007,17.122S257.285,632.7,283.2,634c24.905,1.284,47.818,13.231,70.637,23.286,38.471,17,83.4,29.193,121.84,12.11,17.613-7.83,32.174-21.161,49.032-30.47a120.68,120.68,0,0,1,74.482-13.667c17.122,2.413,33.466,8.483,50.223,12.671,38.058,9.5,77.782,9.192,117,8.818,7.3-.07,14.717-.156,21.714-2.241,10.359-3.113,18.9-10.281,27.131-17.293,10.81-9.207,22.2-19.325,25.683-33.093,4.117-16.344-4.405-33.715-17.044-44.821s-28.8-17.177-44.565-23.029c-3.891-1.432-8.047-2.888-12.032-1.806a16.409,16.409,0,0,0-6.771,4.335c-11.192,10.771-20.648,28.991-35.91,26.065-5.448-1.043-9.908-4.833-14.219-8.335-23.022-18.679-53.99-33.1-81.774-22.78-20.321,7.549-34.665,26.936-55.258,33.778-14.647,4.872-30.563,2.763-45.973,3.712-22.415,1.37-44.23,9.293-66.675,8.81-57.235-1.23-104.92-55.959-161.922-50.744-4.467.4-9.339,1.432-12.079,4.966" transform="translate(-124.439 -249.705)" fill="#efeff0"/>
    <path id="Path_86393" data-name="Path 86393" d="M263.332,467.133s-47.561,28.711,40.144,72.933c0,0,19.325-35.879-2.039-65.134a28.8,28.8,0,0,0-37.358-8.188Z" transform="translate(-151.259 -238.911)" fill="#ffc62c"/>
    <path id="Path_86394" data-name="Path 86394" d="M267.73,467.52s40.72,31.131,39.583,73.509" transform="translate(-155.088 -239.898)" fill="none" stroke="#edf5e1" stroke-miterlimit="10" stroke-width="1"/>
    <path id="Path_86395" data-name="Path 86395" d="M1003.013,423.263c9.635,35.233-31.466,135.608-31.466,135.608s-86.483-65.477-96.126-100.71a66.154,66.154,0,1,1,127.584-34.906Z" transform="translate(-289.21 -218.958)" fill="#6c63ff"/>
    <path id="Path_86396" data-name="Path 86396" d="M1003.013,423.263c9.635,35.233-31.466,135.608-31.466,135.608s-86.483-65.477-96.126-100.71a66.154,66.154,0,1,1,127.584-34.906Z" transform="translate(-289.21 -218.958)" fill="#70d55e"/>
    <path id="Path_86397" data-name="Path 86397" d="M936.21,378.27s53.834,81.268,49.81,181.947" transform="translate(-303.302 -220.11)" fill="none" stroke="#edf5e1" stroke-miterlimit="10" stroke-width="1"/>
    <path id="Path_86398" data-name="Path 86398" d="M1045.5,519.366s-48.814-26.555-42.634,71.47c0,0,40.72-1.455,55.172-34.672a28.8,28.8,0,0,0-11.822-36.385Z" transform="translate(-317.961 -250.666)" fill="#ffc62c"/>
    <path id="Path_86399" data-name="Path 86399" d="M1046.456,520.52s-6.3,50.884-43.436,71.3" transform="translate(-318.115 -251.649)" fill="none" stroke="#edf5e1" stroke-miterlimit="10" stroke-width="1"/>
    <path id="Path_86402" data-name="Path 86402" d="M753.363,482.514h-50a16.671,16.671,0,0,0,1.743-7.448V247.371a16.741,16.741,0,0,0-16.741-16.741H301.3a16.741,16.741,0,0,0-16.741,16.741v227.7a16.67,16.67,0,0,0,1.743,7.448H234.528a4.428,4.428,0,0,0-4.428,4.452v3.572a24.765,24.765,0,0,0,24.765,24.765H733.026a24.765,24.765,0,0,0,24.765-24.765v-3.572a4.428,4.428,0,0,0-4.428-4.46ZM445.249,496.678l-4.312-4.864H547.39l-4.747,4.872Z" transform="translate(-146.745 -187.375)" fill="url(#linear-gradient)"/>
    <rect id="Rectangle_6588" data-name="Rectangle 6588" width="411.027" height="255.269" rx="23.26" transform="translate(142.551 46.477)" fill="#535461"/>
    <rect id="Rectangle_6589" data-name="Rectangle 6589" width="392.854" height="208.541" transform="translate(151.206 83.687)" fill="#edf5e1"/>
    <circle id="Ellipse_718" data-name="Ellipse 718" cx="3.463" cy="3.463" r="3.463" transform="translate(344.173 62.05)" fill="#edf5e1"/>
    <path id="Path_86403" data-name="Path 86403" d="M556.736,551.08l-13.5,13.846H448.088l-12.2-13.846H242.107a4.327,4.327,0,0,0-4.327,4.327v3.487a24.2,24.2,0,0,0,24.2,24.2H729.312a24.2,24.2,0,0,0,24.2-24.2v-3.487a4.327,4.327,0,0,0-4.327-4.327Z" transform="translate(-148.448 -258.424)" fill="#535461"/>
    <path id="Path_86404" data-name="Path 86404" d="M258.77,124.19V301.576H552.1" transform="translate(-57.373 -27.522)" fill="none" stroke="#535461" stroke-miterlimit="10" stroke-width="2"/>
    <rect id="Rectangle_6590" data-name="Rectangle 6590" width="30.283" height="46.728" transform="translate(227.353 220.407)" fill="#8cdd7e" opacity="0.5"/>
    <rect id="Rectangle_6591" data-name="Rectangle 6591" width="30.283" height="88.265" transform="translate(279.272 178.871)" fill="#ea4368" opacity="0.7"/>
    <rect id="Rectangle_6592" data-name="Rectangle 6592" width="30.283" height="63.165" transform="translate(331.191 203.962)" fill="#fd6f8d" opacity="0.5"/>
    <rect id="Rectangle_6593" data-name="Rectangle 6593" width="30.283" height="102.111" transform="translate(383.111 165.025)" fill="#70d55e" opacity="0.8"/>
    <rect id="Rectangle_6594" data-name="Rectangle 6594" width="30.283" height="138.449" transform="translate(435.03 128.679)" fill="#70d55e"/>
    <path id="Path_86405" data-name="Path 86405" d="M311.02,224.057,363.8,176.465l51.919,44.993,51.055-54.511L518.7,145.31" transform="translate(-68.958 -32.204)" fill="none" stroke="#a8a8a8" stroke-miterlimit="10" stroke-width="2"/>
    <circle id="Ellipse_719" data-name="Ellipse 719" cx="6.055" cy="6.055" r="6.055" transform="translate(236.007 185.797)" fill="#70d55e"/>
    <circle id="Ellipse_720" data-name="Ellipse 720" cx="6.055" cy="6.055" r="6.055" transform="translate(339.846 182.334)" fill="#f07b95"/>
    <circle id="Ellipse_721" data-name="Ellipse 721" cx="6.055" cy="6.055" r="6.055" transform="translate(392.629 128.687)" fill="#70d55e"/>
    <circle id="Ellipse_722" data-name="Ellipse 722" cx="6.055" cy="6.055" r="6.055" transform="translate(288.79 137.334)" fill="#f07b95"/>
    <circle id="Ellipse_723" data-name="Ellipse 723" cx="6.055" cy="6.055" r="6.055" transform="translate(443.684 107.051)" fill="#70d55e"/>
    <path id="Path_86406" data-name="Path 86406" d="M939.807,475.306c-3.191-1.051-7.923-2.265-11.674-1.837-3.572-1.3-11.97-4.67-17.706-9.744a127.683,127.683,0,0,0-.381-14.959c-2.934-33.365,3.666-55.359,3.666-55.359s5.183-16.78,4.615-30.7c.335.63.521,1,.521,1,.451-12.009,4.545-24.438,7.612-32.182a2.584,2.584,0,0,0,.342-.125l3.424-8.125a7.049,7.049,0,0,0,.646-1.5l.553-1.284-.163-.07c.055-.21.109-.436.163-.662h0c2.187-9.254,3.891-31.2,3.891-31.2,5.868-23.1-8.063-37.358-8.063-37.358l-23.644-20.344a3,3,0,0,1,.233.833l-.195-.171c-.335-.957-.7-2.1-1.058-3.409a19.989,19.989,0,0,0,7.635-11.456,35.859,35.859,0,0,0,.35-8.561l-.389-9.814a31.145,31.145,0,0,0-.584-5.72c-1.782-7.783-9.76-13.231-17.768-13.589a64.944,64.944,0,0,0-7.627.4,51.314,51.314,0,0,1-6.226.132,1.121,1.121,0,0,1-.669-.179.98.98,0,0,1-.288-.677,3.377,3.377,0,0,1,.825-2.529,3.113,3.113,0,0,1,1.074-.615l-.568.132a3.114,3.114,0,0,1,.934-.506,18.127,18.127,0,0,0-5.9,2.14,7.617,7.617,0,0,0-1.378,1.16,6.016,6.016,0,0,0-1.993,3.7,6.9,6.9,0,0,1-2.1-3.113,3.115,3.115,0,0,1,0-1.51q-.21.257-.4.529v-.163a15.736,15.736,0,0,0-3.113,6.335,2.467,2.467,0,0,1-.56-1.821q-.175.549-.327,1.1a2.539,2.539,0,0,1,0-.732,25.067,25.067,0,0,0-1.222,8.7c0,2.942,1.307,7.526,4.459,8.561.163.055.327.093.5.132A19.792,19.792,0,0,0,880.6,230.38q.078.537.148,1.128h.125c.086.778.156,1.634.2,2.506a16.865,16.865,0,0,1-2.6,2.086,21.434,21.434,0,0,1-8.655,2.864,25.762,25.762,0,0,0-10.406,3.113c-3.775,2.109-7.938,5.183-9.246,8.919-2.179,6.226-14.18,15.916-22.228,17.122l-2.864-.163-.21-.062v.054l-.7-.039h-.226v.039l-.724-.039s-.07.335-.171.926c-4.047-1.393-12.647-5.253-23.839-15.41-12.453-11.308-29.3-9.083-35.8-7.658a1.113,1.113,0,0,0-.3,2.062c2.623,1.44,6.685,3.533,8.561,3.767,0,0-3.891,4.07.249,6.226a3,3,0,0,0,3.113-.3c2.008-1.471,7.588,1.86,15.675,3.6,0,0,22.819,23.613,34.151,27.24a16.3,16.3,0,0,0,.864,1.5l.7-.054v.054h.3l.086.778s17.62-.926,23.349-7.324a9.185,9.185,0,0,0,1.113-1.191l-6.125,77.05h.055l-.055.732h4.506a169.85,169.85,0,0,1-1.222,28.376v50.23s-.233,4.421,8.95,10.9a343.275,343.275,0,0,1,27.8,21.551l1.113.965c-1.689,15.371-5.222,44.02-8.172,45.086l1.821.319c-3.113,3.946-11.954,14.787-14.647,15.075-3.3.366-5.5,5.5,0,6.6a61.647,61.647,0,0,0,32.688-3.222,4.989,4.989,0,0,0,3.113-5.308l-1.066-8.094a1.137,1.137,0,0,1,.467.49c.732,2.2,0-2.934,0-2.934a229.39,229.39,0,0,0,7.09-29.575l10.9,9.417s.218-.272.6-.778c2.67,6.055,7.433,18.445,6.366,27.52-1.463,12.453,12.453,1.463,11-5.868-1.183-5.93,4.109-31.069,6.172-40.471a4.18,4.18,0,0,0-2.8-4.872Z" transform="translate(-264.793 -175.07)" fill="url(#linear-gradient-2)"/>
    <path id="Path_86407" data-name="Path 86407" d="M826.459,292.542s-10.382-1.79-25.777-15.752c-12.18-11.044-28.61-8.872-34.945-7.479a1.082,1.082,0,0,0-.288,2.008c2.561,1.4,6.53,3.448,8.39,3.681,0,0-3.837,3.969.241,6.094a2.934,2.934,0,0,0,3.066-.3c1.961-1.432,7.409,1.821,15.309,3.51,0,0,30.789,31.863,37.949,26.462Z" transform="translate(-265.316 -195.695)" fill="#fec3be"/>
    <path id="Path_86408" data-name="Path 86408" d="M912.11,239.444s2.864,12.172,0,20.765L925,262l11.456-5.728v-7.518a51.627,51.627,0,0,1-3.938-24.7Z" transform="translate(-297.958 -185.916)" fill="#fec3be"/>
    <path id="Path_86409" data-name="Path 86409" d="M959,576.727s9.339,18.259,7.876,30.431,12.172,1.432,10.74-5.728c-1.16-5.79,4.008-30.353,6.024-39.49a4.078,4.078,0,0,0-2.708-4.755c-4.3-1.417-11.511-3.152-15.13-.5C960.455,560.617,959,576.727,959,576.727Z" transform="translate(-308.355 -259.361)" fill="#8b416f"/>
    <path id="Path_86410" data-name="Path 86410" d="M908.173,608.284S896,624.037,892.778,624.395s-5.37,5.37,0,6.444a60.192,60.192,0,0,0,31.91-3.113,4.872,4.872,0,0,0,3.059-5.183l-2.055-15.332Z" transform="translate(-292.947 -270.869)" fill="#8b416f"/>
    <path id="Path_86411" data-name="Path 86411" d="M884.364,393.78l-11.674,1.557a170.857,170.857,0,0,1-.14,41.039v49.032s-.226,4.319,8.74,10.6a335.2,335.2,0,0,1,27.147,21.014l32.485,28.143s12.888-15.752,11.1-25.061c0,0-21.481-6.8-24.345-17.9-1.642-6.351-9.97-11.674-16.788-15.021a20.874,20.874,0,0,1-11.168-23.691,18.271,18.271,0,0,1,1.829-4.6c5.728-10.024,13.962-32.579,13.962-32.579l-15.752-30.026Z" transform="translate(-289.187 -223.548)" fill="#4d4981"/>
    <path id="Path_86412" data-name="Path 86412" d="M884.364,393.78l-11.674,1.557a170.857,170.857,0,0,1-.14,41.039v49.032s-.226,4.319,8.74,10.6a335.2,335.2,0,0,1,27.147,21.014l32.485,28.143s12.888-15.752,11.1-25.061c0,0-21.481-6.8-24.345-17.9-1.642-6.351-9.97-11.674-16.788-15.021a20.874,20.874,0,0,1-11.168-23.691,18.271,18.271,0,0,1,1.829-4.6c5.728-10.024,13.962-32.579,13.962-32.579l-15.752-30.026Z" transform="translate(-289.187 -223.548)" opacity="0.05"/>
    <path id="Path_86413" data-name="Path 86413" d="M906.555,562.1s21.123,3.58,21.839,5.728,0-2.864,0-2.864,12.172-36.875,9.339-69.446,3.58-54.06,3.58-54.06,7.518-24.345,3.222-38.307-49.405-7.876-49.405-7.876,15.752,36.875,15.394,54.418c0,0,1.79,52.986,5.012,59.072C915.505,508.732,910.493,560.643,906.555,562.1Z" transform="translate(-294.194 -223.587)" fill="#4d4981"/>
    <path id="Path_86414" data-name="Path 86414" d="M903.931,255.79s2.148,13.231,23.629,7.518L913.271,372.136s-41.529,1.432-41.171-3.58l8.561-65.866Z" transform="translate(-289.087 -192.954)" fill="#edf5e1"/>
    <path id="Path_86415" data-name="Path 86415" d="M898.065,254.87a17.449,17.449,0,0,1-10.343,4.911,25.161,25.161,0,0,0-10.164,3.02c-3.681,2.062-7.783,5.059-9.028,8.709-2.506,7.16-18.258,18.975-25.419,16.468l2.506,21.481s20.407-1.074,23.987-8.95l-6.078,76.653h5.37s2.864-20.765,5.012-25.061,6.444-27.925,6.8-33.653,5.728-38.665,10.382-44.362l7-17.005Z" transform="translate(-282.66 -192.75)" opacity="0.1"/>
    <path id="Path_86416" data-name="Path 86416" d="M897.863,256.25A22.157,22.157,0,0,1,886.8,260.8a25.162,25.162,0,0,0-10.157,3.035c-3.681,2.062-7.783,5.059-9.028,8.709-2.506,7.16-18.259,18.975-25.419,16.468l2.506,21.481s20.407-1.074,23.987-8.95l-6.086,76.606h5.37s2.864-20.765,5.012-25.061,6.444-27.925,6.8-33.653,5.728-38.665,10.382-44.362l7.689-16.686Z" transform="translate(-282.458 -193.056)" opacity="0.1"/>
    <path id="Path_86417" data-name="Path 86417" d="M897.861,255.33a22.158,22.158,0,0,1-11.059,4.553,25.161,25.161,0,0,0-10.164,3.02c-3.681,2.062-7.783,5.059-9.028,8.709-2.506,7.16-18.259,18.975-25.419,16.468l2.506,21.481s20.407-1.074,23.987-8.95L862.6,377.264h5.37s2.864-20.765,5.012-25.061,6.444-27.925,6.8-33.653,5.728-38.665,10.382-44.362l7.7-16.647Z" transform="translate(-282.456 -192.852)" fill="#ffc33c"/>
    <path id="Path_86418" data-name="Path 86418" d="M931.622,234.917c-.467-3.393.467-5.51.9-9.487L912.11,240.824s.49,2.078.864,5.121a19.458,19.458,0,0,0,3.113.249C923.169,246.195,928.267,240.661,931.622,234.917Z" transform="translate(-297.958 -186.222)" opacity="0.1"/>
    <circle id="Ellipse_724" data-name="Ellipse 724" cx="19.333" cy="19.333" r="19.333" transform="translate(598.757 20.241)" fill="#fec3be"/>
    <path id="Path_86419" data-name="Path 86419" d="M890.055,197.111a24.467,24.467,0,0,1,1.557-9.565,2.389,2.389,0,0,0,.4,3.113,15.317,15.317,0,0,1,4.856-8.608c-1.378.226-2.086,1.93-1.743,3.284a7.472,7.472,0,0,0,2.389,3.362,6.006,6.006,0,0,1,2.95-5.082,17.7,17.7,0,0,1,5.759-2.086,3.339,3.339,0,0,0-2.21,3.424.957.957,0,0,0,.288.662,1.1,1.1,0,0,0,.654.171,50.1,50.1,0,0,0,6.047-.132,63.418,63.418,0,0,1,7.448-.4c7.783.327,15.6,5.643,17.348,13.231a30.415,30.415,0,0,1,.568,5.588l.381,9.581a35.021,35.021,0,0,1-.342,8.374A17.745,17.745,0,0,1,927.3,234.08c-2.81-4.07-3.059-9.3-4.031-14.149a7.16,7.16,0,0,0-1.214-3.113,2.732,2.732,0,0,0-3-1.012,1.721,1.721,0,0,0-.63,2.74c-.778.918-2.234.233-3.113-.584a16.717,16.717,0,0,1-4.849-8.662c-.35-1.666-.7-3.72-2.335-4.288a4.343,4.343,0,0,0-1.728-.117c-3.409.233-8.74,1.642-12.04.56C891.331,204.466,890.055,199.983,890.055,197.111Z" transform="translate(-293.064 -176.489)" opacity="0.1"/>
    <path id="Path_86420" data-name="Path 86420" d="M890.515,196.651a24.468,24.468,0,0,1,1.557-9.565,2.389,2.389,0,0,0,.4,3.113,15.318,15.318,0,0,1,4.856-8.608c-1.378.226-2.086,1.93-1.743,3.284a7.472,7.472,0,0,0,2.389,3.362,6.006,6.006,0,0,1,2.95-5.082,17.7,17.7,0,0,1,5.759-2.086,3.339,3.339,0,0,0-2.21,3.424.957.957,0,0,0,.288.662,1.1,1.1,0,0,0,.654.171,50.108,50.108,0,0,0,6.047-.132,63.421,63.421,0,0,1,7.448-.4c7.783.327,15.6,5.643,17.348,13.231a30.426,30.426,0,0,1,.568,5.588l.381,9.581a35.017,35.017,0,0,1-.342,8.374,17.745,17.745,0,0,1-9.114,12.048c-2.81-4.07-3.059-9.3-4.031-14.149a7.159,7.159,0,0,0-1.214-3.113,2.732,2.732,0,0,0-3-1.012,1.721,1.721,0,0,0-.63,2.74c-.778.918-2.234.233-3.113-.584a16.718,16.718,0,0,1-4.849-8.662c-.35-1.666-.7-3.72-2.335-4.288a4.343,4.343,0,0,0-1.728-.117c-3.409.233-8.74,1.642-12.04.56C891.791,204,890.515,199.523,890.515,196.651Z" transform="translate(-293.166 -176.387)" fill="#784f69"/>
    <path id="Path_86421" data-name="Path 86421" d="M840.783,297.42s-2.864,13.231,2.506,21.481l3.043-.249-1.658-21.014Z" transform="translate(-281.975 -202.184)" opacity="0.1"/>
    <path id="Path_86422" data-name="Path 86422" d="M841.783,297.42s-2.864,13.231,2.506,21.481l3.043-.249-1.658-21.014Z" transform="translate(-282.197 -202.184)" fill="#fd6f8d"/>
    <path id="Path_86423" data-name="Path 86423" d="M933.77,251l23.092,19.87s13.6,13.962,7.876,36.517c0,0-2.506,32.937-5.37,34.369,0,0-10.024,20.049-10.74,39.023,0,0-13.425-27.03-19.511-10.561s-20.235,18.8-20.235,18.8l7.876-97.41S936.634,257.055,933.77,251Z" transform="translate(-297.242 -191.892)" opacity="0.1"/>
    <path id="Path_86424" data-name="Path 86424" d="M934.69,251l23.092,19.87s13.6,13.962,7.876,36.517c0,0-2.506,32.937-5.37,34.369,0,0-10.024,20.049-10.74,39.023,0,0-14.141-28.462-20.235-11.993S909.8,389.021,909.8,389.021l7.876-97.371S937.554,257.055,934.69,251Z" transform="translate(-297.446 -191.892)" fill="#ffc33c"/>
    <path id="Path_86425" data-name="Path 86425" d="M950.913,358.629s5.728-3.938,15.036,6.8l-22.913,41.529-7.7-11.62S951.63,363.283,950.913,358.629Z" transform="translate(-303.109 -215.599)" fill="#fec3be"/>
    <path id="Path_86426" data-name="Path 86426" d="M948.22,360.086s12.67,14.227,17.612,11.947l4.576-10.655L953.232,354Z" transform="translate(-305.965 -214.729)" opacity="0.1"/>
    <path id="Path_86427" data-name="Path 86427" d="M948.22,359.166s12.67,14.227,17.612,11.947l4.576-10.655-17.177-7.378Z" transform="translate(-305.965 -214.525)" fill="#fd6f8d"/>
    <path id="Path_86428" data-name="Path 86428" d="M935.706,402.51s6.032,12.359,9.246,13.075l-4.67,5.37-6.8-12.888Z" transform="translate(-302.697 -225.484)" opacity="0.1"/>
    <path id="Path_86429" data-name="Path 86429" d="M935.241,403s6.032,12.359,9.246,13.075l-4.67,5.37L933,408.534Z" transform="translate(-302.59 -225.593)" fill="#4d4981"/>
    <path id="Path_86430" data-name="Path 86430" d="M949.908,304.78s.716,25.777-2.148,35.443" transform="translate(-305.863 -203.816)" opacity="0.1"/>
    <path id="Path_86431" data-name="Path 86431" d="M876,309.792s4.3-1.432,4.3-5.012" transform="translate(-289.952 -203.816)" opacity="0.1"/>
    <g id="Group_28708" data-name="Group 28708">
      <path id="Path_86432" data-name="Path 86432" d="M202.4,316.76s-20.407,42.214-7,92.172,9.145,109.738-4.218,124.525" transform="translate(-138.039 -206.472)" fill="none" stroke="#1a0841" stroke-miterlimit="10" stroke-width="2"/>
      <path id="Path_86433" data-name="Path 86433" d="M194.79,350.541s21.154,3.814,26.781-3.891" transform="translate(-138.917 -213.099)" fill="none" stroke="#1a0841" stroke-miterlimit="10" stroke-width="2"/>
      <path id="Path_86434" data-name="Path 86434" d="M188.777,360.984S176.052,346.9,176.752,338.46" transform="translate(-134.911 -211.283)" fill="none" stroke="#1a0841" stroke-miterlimit="10" stroke-width="2"/>
      <path id="Path_86435" data-name="Path 86435" d="M190.82,395s11.573,3.051,22.134-19.457" transform="translate(-138.036 -219.505)" fill="none" stroke="#1a0841" stroke-miterlimit="10" stroke-width="2"/>
      <path id="Path_86436" data-name="Path 86436" d="M187.5,415.955s-28.8-18.531-25.286-30.485" transform="translate(-131.628 -221.706)" fill="none" stroke="#1a0841" stroke-miterlimit="10" stroke-width="2"/>
      <path id="Path_86437" data-name="Path 86437" d="M200.57,441.773s20.173-17.9,18.064-35.513" transform="translate(-140.198 -226.315)" fill="none" stroke="#1a0841" stroke-miterlimit="10" stroke-width="2"/>
      <path id="Path_86438" data-name="Path 86438" d="M196.29,462.66s-25.683-7.176-24.905-18.43" transform="translate(-133.723 -234.734)" fill="none" stroke="#1a0841" stroke-miterlimit="10" stroke-width="2"/>
      <path id="Path_86439" data-name="Path 86439" d="M205.69,480.127s16.181-14.99,18.29-24.127" transform="translate(-141.333 -237.344)" fill="none" stroke="#1a0841" stroke-miterlimit="10" stroke-width="2"/>
      <path id="Path_86440" data-name="Path 86440" d="M202.209,511.425s-16.6-19.379-17.309-29.225" transform="translate(-136.724 -243.152)" fill="none" stroke="#1a0841" stroke-miterlimit="10" stroke-width="2"/>
      <path id="Path_86441" data-name="Path 86441" d="M207.14,531.675s18.578-20.64,19.979-30.485" transform="translate(-141.655 -247.363)" fill="none" stroke="#1a0841" stroke-miterlimit="10" stroke-width="2"/>
    </g>
    <circle id="Ellipse_726" data-name="Ellipse 726" cx="5.627" cy="5.627" r="5.627" transform="translate(36.214 122.959)" fill="#3f9a0f"/>
    <circle id="Ellipse_727" data-name="Ellipse 727" cx="5.627" cy="5.627" r="5.627" transform="translate(29.887 203.869)" fill="#3f9a0f"/>
    <circle id="Ellipse_728" data-name="Ellipse 728" cx="5.627" cy="5.627" r="5.627" transform="translate(24.96 158.137)" fill="#3f9a0f"/>
    <circle id="Ellipse_729" data-name="Ellipse 729" cx="5.627" cy="5.627" r="5.627" transform="translate(77.027 127.885)" fill="#3f9a0f"/>
    <circle id="Ellipse_730" data-name="Ellipse 730" cx="5.627" cy="5.627" r="5.627" transform="translate(77.027 214.422)" fill="#3f9a0f"/>
    <circle id="Ellipse_731" data-name="Ellipse 731" cx="5.627" cy="5.627" r="5.627" transform="translate(67.883 150.401)" fill="#3f9a0f"/>
    <circle id="Ellipse_732" data-name="Ellipse 732" cx="5.627" cy="5.627" r="5.627" transform="translate(79.137 251.718)" fill="#3f9a0f"/>
    <circle id="Ellipse_733" data-name="Ellipse 733" cx="5.627" cy="5.627" r="5.627" transform="translate(41.141 236.938)" fill="#3f9a0f"/>
    <circle id="Ellipse_734" data-name="Ellipse 734" cx="5.627" cy="5.627" r="5.627" transform="translate(73.51 174.318)" fill="#3f9a0f"/>
    <circle id="Ellipse_725" data-name="Ellipse 725" cx="5.627" cy="5.627" r="5.627" transform="translate(58.73 104.669)" fill="#3f9a0f"/>
    <g id="Group_28709" data-name="Group 28709">
      <path id="Path_86400" data-name="Path 86400" d="M135.889,505.094S88.3,533.8,176.017,578c0,0,19.325-35.879-2.039-65.135a28.8,28.8,0,0,0-37.358-8.188Z" transform="translate(-123 -247.321)" fill="#70d55e"/>
      <path id="Path_86401" data-name="Path 86401" d="M140.26,505.49S180.98,536.621,179.843,579" transform="translate(-126.826 -248.316)" fill="none" stroke="#edf5e1" stroke-miterlimit="10" stroke-width="1"/>
    </g>
  </g>
</svg>
