<svg xmlns="http://www.w3.org/2000/svg" width="93" height="93" viewBox="0 0 93 93">
  <g id="Group_26283" data-name="Group 26283" transform="translate(-573 -6191)">
    <g id="_021-hsbc" data-name="021-hsbc" transform="translate(576.819 6195)">
      <circle id="Ellipse_387" data-name="Ellipse 387" cx="42.5" cy="42.5" r="42.5" transform="translate(0.181)" fill="#f3f2f2"/>
      <g id="Group_25441" data-name="Group 25441" transform="translate(7.03 34.809)">
        <path id="Path_67091" data-name="Path 67091" d="M49.91,200.469v-4.145c0-.54-.279-1.135-1.638-1.135v-.353h5.168v.353c-1.357,0-1.635.6-1.635,1.135v9.333c0,.538.278,1.134,1.635,1.134v.353H48.273v-.353c1.359,0,1.638-.6,1.638-1.134v-4.425H44.276v4.425c0,.539.278,1.134,1.637,1.134v.353H40.744v-.353c1.357,0,1.637-.6,1.637-1.134v-9.333c0-.54-.279-1.135-1.637-1.135v-.353h5.169v.353c-1.359,0-1.637.6-1.637,1.135v4.145H49.91" transform="translate(-40.744 -194.46)" fill="#231f20"/>
        <path id="Path_67092" data-name="Path 67092" d="M113.477,202.229h.427c.578,1.729,1.878,3.291,3.85,3.291a2.108,2.108,0,0,0,2.1-2.753c-.764-2.6-5.838-2.715-5.838-6.266a3.12,3.12,0,0,1,3.291-3.1c1.97,0,2.862,1.375,3.308,0h.39l.409,3.961h-.464c-.428-1.731-1.655-3.2-3.385-3.2a1.745,1.745,0,0,0-1.952,1.786c0,1.078,1.171,1.839,1.97,2.322,2.529,1.526,4.239,2.324,4.239,4.556,0,1.674-1.394,3.4-3.921,3.4-1.935,0-3.273-1.356-3.46,0h-.408l-.555-4" transform="translate(-100.343 -193.282)" fill="#231f20"/>
        <path id="Path_67093" data-name="Path 67093" d="M170.114,200.339c1.878,0,2.974-.8,2.974-2.306a2.353,2.353,0,0,0-2.193-2.416c-1.712-.112-2.307-.149-2.307.5v4.22h1.525m-1.525,5.131c0,.652.168.986,1.525.986,1.934,0,3.365-.577,3.365-2.752,0-2.213-2.213-2.622-3.96-2.622h-.93v4.388Zm-1.9-9.147c0-.54-.278-1.135-1.785-1.135v-.353h4.982c2.864,0,5.1.764,5.1,3.143,0,1.561-1.042,2.361-2.472,2.678v.037c1.6.3,3.1,1.281,3.1,3.068,0,2.231-1.932,3.383-4.852,3.383h-5.856v-.353c1.506,0,1.785-.6,1.785-1.134Z" transform="translate(-142.486 -194.46)" fill="#231f20"/>
        <path id="Path_67094" data-name="Path 67094" d="M236.069,196.963h-.446c-.538-2.047-1.9-3.441-4.016-3.441-3.067,0-4.387,2.473-4.387,5.819,0,2.6,1.357,5.41,4.406,5.41a5.687,5.687,0,0,0,4.35-1.859l.316.372a6.521,6.521,0,0,1-4.834,2.324,6.03,6.03,0,0,1-6.4-6.4,6.172,6.172,0,0,1,6.359-6.433c2.547,0,3.477,1.526,4.092.02h.389l.166,4.185" transform="translate(-191.779 -192.758)" fill="#231f20"/>
      </g>
      <rect id="Rectangle_3701" data-name="Rectangle 3701" width="12.505" height="12.505" transform="translate(61.362 34.85)" fill="#edf5e1"/>
      <g id="Group_25442" data-name="Group 25442" transform="translate(55.109 34.84)">
        <path id="Path_67095" data-name="Path 67095" d="M341.621,192.93h12.5l-6.252,6.252-6.252-6.252" transform="translate(-335.367 -192.93)" fill="#ee3725"/>
        <path id="Path_67096" data-name="Path 67096" d="M341.621,233.805h12.5l-6.252-6.252-6.252,6.252" transform="translate(-335.367 -221.301)" fill="#ee3725"/>
        <path id="Path_67097" data-name="Path 67097" d="M313.245,192.93v12.5l-6.254-6.252,6.254-6.252" transform="translate(-306.991 -192.93)" fill="#ee3725"/>
        <path id="Path_67098" data-name="Path 67098" d="M410.867,192.93v12.5l6.253-6.252-6.253-6.252" transform="translate(-392.109 -192.93)" fill="#ee3725"/>
      </g>
    </g>
    <g id="Ellipse_716" data-name="Ellipse 716" transform="translate(573 6191)" fill="none" stroke="#edf5e1" stroke-width="1">
      <circle cx="46.5" cy="46.5" r="46.5" stroke="none"/>
      <circle cx="46.5" cy="46.5" r="46" fill="none"/>
    </g>
  </g>
</svg>
