<svg xmlns="http://www.w3.org/2000/svg" xmlns:xlink="http://www.w3.org/1999/xlink" width="169px" height="56px" viewBox="0 0 169 56" version="1.1">
    <!-- Generator: Sketch 52.6 (67491) - http://www.bohemiancoding.com/sketch -->
    <title>vv</title>
    <desc>Created with Sketch.</desc>
    <g id="vv" stroke="none" stroke-width="1" fill="none" fill-rule="evenodd">
        <g id="Group-19-Copy" transform="translate(3.000000, 0.000000)">
            <text id="FX-Copy" font-family="Arial-Black, Arial Black" font-size="40" font-weight="700" letter-spacing="-6.64" fill="#949494">
                <tspan x="81.2435156" y="44">FX</tspan>
            </text>
            <polygon id="M-Copy" fill="#949494" points="129.275078 15.3671875 140.915703 15.3671875 145.407891 32.7890625 149.880547 15.3671875 161.482109 15.3671875 161.482109 44 154.255547 44 154.255547 22.1640625 148.650078 44 142.107109 44 136.521172 22.1640625 136.521172 44 129.275078 44"/>
            <polygon id="Fill-4" fill="#38EC9D" points="121.580763 15 101 44 112.764476 44 133 15.0248524"/>
            <path d="M75,16 L75,43" id="Line-3-Copy" stroke="#949494" stroke-width="1.5" stroke-linecap="square"/>
            <path d="M0.162304759,36 L0.162304759,25.3505859 L2.33027351,25.3505859 L2.33027351,34.190918 L7.72089851,34.190918 L7.72089851,36 L0.162304759,36 Z M19.4789258,36 L17.1205274,36 L16.1830274,33.5610352 L11.8910352,33.5610352 L11.0048047,36 L8.70500004,36 L12.8871289,25.2626953 L15.1796094,25.2626953 L19.4789258,36 Z M15.4872266,31.7519531 L14.0077344,27.7675781 L12.5575391,31.7519531 L15.4872266,31.7519531 Z M21.1441797,25.2626953 L23.3121485,25.2626953 L23.3121485,31.078125 C23.3121485,32.0009812 23.3390037,32.5991197 23.3927149,32.8725586 C23.4854888,33.3120139 23.7064338,33.6647936 24.0555567,33.9309082 C24.4046795,34.1970228 24.8819696,34.3300781 25.4874414,34.3300781 C26.1026789,34.3300781 26.5665414,34.204347 26.879043,33.9528809 C27.1915445,33.7014148 27.3795309,33.39258 27.4430078,33.0263672 C27.5064847,32.6601544 27.5382227,32.0522503 27.5382227,31.2026367 L27.5382227,25.2626953 L29.7061914,25.2626953 L29.7061914,30.9023438 C29.7061914,32.1914127 29.6475983,33.1020481 29.5304102,33.6342773 C29.4132221,34.1665066 29.1971598,34.6157208 28.8822168,34.9819336 C28.5672738,35.3481464 28.1461355,35.6398915 27.6187891,35.8571777 C27.0914427,36.074464 26.402973,36.1831055 25.5533594,36.1831055 C24.5279636,36.1831055 23.7503835,36.0646984 23.2205957,35.8278809 C22.6908079,35.5910633 22.2721109,35.2834492 21.9644922,34.9050293 C21.6568735,34.5266094 21.4542388,34.1298849 21.356582,33.7148438 C21.2149798,33.0996063 21.1441797,32.1914123 21.1441797,30.9902344 L21.1441797,25.2626953 Z M32.5433203,36 L32.5433203,25.2626953 L34.6526953,25.2626953 L39.0472265,32.4331055 L39.0472265,25.2626953 L41.0613867,25.2626953 L41.0613867,36 L38.8860937,36 L34.5574805,28.9980469 L34.5574805,36 L32.5433203,36 Z M50.7539843,32.0522461 L52.8560351,32.71875 C52.5337679,33.8906309 51.9978846,34.7609835 51.2483691,35.329834 C50.4988536,35.8986845 49.5479354,36.1831055 48.3955859,36.1831055 C46.9697975,36.1831055 45.7979342,35.6960498 44.8799609,34.7219238 C43.9619876,33.7477979 43.5030078,32.4160241 43.5030078,30.7265625 C43.5030078,28.9394442 43.9644289,27.5515186 44.8872851,26.5627441 C45.8101413,25.5739697 47.0235081,25.0795898 48.5274218,25.0795898 C49.840905,25.0795898 50.9077888,25.4677696 51.7281054,26.2441406 C52.2163891,26.7031273 52.5825964,27.3623004 52.8267382,28.2216797 L50.6807421,28.734375 C50.5537884,28.1777316 50.2888985,27.7382829 49.8860644,27.4160156 C49.4832304,27.0937484 48.9937333,26.9326172 48.4175586,26.9326172 C47.6216561,26.9326172 46.9759106,27.2182589 46.4803027,27.7895508 C45.9846947,28.3608427 45.7368945,29.2861264 45.7368945,30.5654297 C45.7368945,31.9228583 45.9810327,32.8896456 46.4693164,33.4658203 C46.9576001,34.0419951 47.5923593,34.3300781 48.3736132,34.3300781 C48.949788,34.3300781 49.4453885,34.1469745 49.8604296,33.7807617 C50.2754708,33.414549 50.5733194,32.8383828 50.7539843,32.0522461 Z M55.2537109,36 L55.2537109,25.2626953 L57.4216796,25.2626953 L57.4216796,29.4887695 L61.6697265,29.4887695 L61.6697265,25.2626953 L63.8376952,25.2626953 L63.8376952,36 L61.6697265,36 L61.6697265,31.3051758 L57.4216796,31.3051758 L57.4216796,36 L55.2537109,36 Z" id="launch" fill="#949494"/>
        </g>
    </g>
</svg>