<svg xmlns="http://www.w3.org/2000/svg" width="93" height="93" viewBox="0 0 93 93">
  <g id="Group_26289" data-name="Group 26289" transform="translate(-1231 -6191)">
    <g id="_032-mastercard" data-name="032-mastercard" transform="translate(1234.909 6195)">
      <circle id="Ellipse_390" data-name="Ellipse 390" cx="42.5" cy="42.5" r="42.5" transform="translate(0.091)" fill="#3c80ad"/>
      <path id="Path_67110" data-name="Path 67110" d="M70.829,121.955a19.709,19.709,0,1,0,13.358,34.282h0a19.79,19.79,0,0,0,2-2.111H82.158a19.078,19.078,0,0,1-1.467-2.031H87.64a19.7,19.7,0,0,0,1.147-2.109H79.546a19.188,19.188,0,0,1-.822-2.07H89.609a19.668,19.668,0,0,0,1.012-6.251,19.885,19.885,0,0,0-.453-4.222H78.146a20.065,20.065,0,0,1,.56-2.07H89.6a19.759,19.759,0,0,0-.848-2.11h-9.2a19.011,19.011,0,0,1,1.128-2.07h6.944a19.578,19.578,0,0,0-1.526-2.109H82.219a18.016,18.016,0,0,1,1.972-1.99,19.56,19.56,0,0,0-13.234-5.138Z" transform="translate(-42.3 -100.321)" fill="#931b1d"/>
      <path id="Path_67111" data-name="Path 67111" d="M236.711,141.67a19.666,19.666,0,1,1-39.333.008v-.008a19.666,19.666,0,1,1,39.333-.011S236.711,141.664,236.711,141.67Z" transform="translate(-162.009 -100.321)" fill="#f16622"/>
      <path id="Path_67112" data-name="Path 67112" d="M236.711,142.881a19.666,19.666,0,1,1-39.333.01v-.01a19.666,19.666,0,1,1,39.333-.01S236.711,142.877,236.711,142.881Z" transform="translate(-162.009 -101.314)" fill="#f7981d"/>
      <path id="Path_67113" data-name="Path 67113" d="M70.829,123.193a19.709,19.709,0,1,0,13.358,34.283v0h0a19.483,19.483,0,0,0,2-2.111H82.158a18.922,18.922,0,0,1-1.467-2.028H87.64a19.879,19.879,0,0,0,1.147-2.111H79.546a19.344,19.344,0,0,1-.822-2.07H89.609a19.679,19.679,0,0,0,1.012-6.252,19.878,19.878,0,0,0-.453-4.221H78.146a20.067,20.067,0,0,1,.56-2.07H89.6a19.78,19.78,0,0,0-.848-2.112h-9.2a19.189,19.189,0,0,1,1.128-2.07h6.944a19.947,19.947,0,0,0-1.526-2.11H82.219a18.258,18.258,0,0,1,1.972-1.99,19.562,19.562,0,0,0-13.234-5.137Z" transform="translate(-42.3 -101.335)" fill="#cb2026"/>
      <g id="Group_25445" data-name="Group 25445" transform="translate(10.853 36.477)">
        <path id="Path_67114" data-name="Path 67114" d="M184.666,218.209l.263-1.783c-.143,0-.354.061-.54.061-.728,0-.81-.388-.762-.675l.589-3.64h1.107l.268-1.974h-1.044l.213-1.226h-2.095c-.045.046-1.236,6.9-1.236,7.734a1.556,1.556,0,0,0,1.668,1.778A5.5,5.5,0,0,0,184.666,218.209Z" transform="translate(-159.793 -208.101)" fill="#edf5e1"/>
        <path id="Path_67115" data-name="Path 67115" d="M203.035,219.317c0,2.966,1.952,3.671,3.616,3.671a5.3,5.3,0,0,0,2.212-.345l.37-2.024a6.476,6.476,0,0,1-2.224.519c-2.248,0-1.854-1.681-1.854-1.681h4.256a15.215,15.215,0,0,0,.274-1.915,2.811,2.811,0,0,0-2.986-3.067C204.593,214.476,203.035,216.748,203.035,219.317Zm3.672-2.964c1.181,0,.963,1.331.963,1.439h-2.324C205.345,217.655,205.565,216.353,206.707,216.353Z" transform="translate(-177.498 -212.61)" fill="#edf5e1"/>
        <path id="Path_67116" data-name="Path 67116" d="M271.382,214.257l.375-2.29a5.013,5.013,0,0,1-1.732.519,2.077,2.077,0,0,1-2.081-2.358c0-2.478,1.278-3.842,2.7-3.842a3.721,3.721,0,0,1,1.923.6l.341-2.222a7.487,7.487,0,0,0-2.357-.516c-2.418,0-4.771,2.1-4.771,6.049,0,2.615,1.271,4.345,3.77,4.345A9.623,9.623,0,0,0,271.382,214.257Z" transform="translate(-228.914 -204.149)" fill="#edf5e1"/>
        <path id="Path_67117" data-name="Path 67117" d="M117.929,214.654a7.233,7.233,0,0,0-2.537.462l-.3,1.808a6.62,6.62,0,0,1,2.282-.369c.78,0,1.349.087,1.349.723a1.351,1.351,0,0,1-.07.528s-.614-.052-.9-.052c-1.81,0-3.713.774-3.713,3.111a1.99,1.99,0,0,0,2.021,2.262,2.72,2.72,0,0,0,2.148-.964l-.069.8h1.843l.823-5.781C120.8,214.733,118.67,214.654,117.929,214.654Zm.449,4.7c.04.353-.222,2.009-1.482,2.009a.765.765,0,0,1-.82-.793c0-.574.312-1.264,1.847-1.264A1.366,1.366,0,0,1,118.378,219.358Z" transform="translate(-104.572 -212.757)" fill="#edf5e1"/>
        <path id="Path_67118" data-name="Path 67118" d="M151.7,223.143c.471,0,3.167.121,3.167-2.667,0-2.607-2.5-2.093-2.5-3.14,0-.52.407-.686,1.15-.686.3,0,1.431.1,1.431.1l.265-1.854a9.792,9.792,0,0,0-1.931-.164c-1.551,0-3.122.618-3.122,2.739,0,2.4,2.622,2.162,2.622,3.174,0,.676-.733.731-1.3.731a6.808,6.808,0,0,1-1.859-.32l-.279,1.833A6.545,6.545,0,0,0,151.7,223.143Z" transform="translate(-133.509 -212.818)" fill="#edf5e1"/>
        <path id="Path_67119" data-name="Path 67119" d="M365.657,205.425l-.451,2.808a2.767,2.767,0,0,0-2.022-1.09c-1.92,0-3.518,2.318-3.518,4.982,0,1.72.852,3.4,2.6,3.4a2.612,2.612,0,0,0,1.949-.876l-.091.748h2.037l1.6-9.979Zm-.972,5.478c0,1.108-.549,2.586-1.683,2.586-.754,0-1.106-.634-1.106-1.628,0-1.626.729-2.7,1.647-2.7C364.3,209.159,364.685,209.679,364.685,210.9Z" transform="translate(-305.844 -205.19)" fill="#edf5e1"/>
        <path id="Path_67120" data-name="Path 67120" d="M63.637,215.4l1.276-7.534L65.1,215.4h1.443l2.691-7.534L68.041,215.4h2.143l1.652-9.99H68.521l-2.064,6.129-.107-6.129H63.294l-1.675,9.99Z" transform="translate(-61.619 -205.181)" fill="#edf5e1"/>
        <path id="Path_67121" data-name="Path 67121" d="M241.7,223.421c.609-3.472.722-6.293,2.178-5.779a8.133,8.133,0,0,1,.777-2.432,2.177,2.177,0,0,0-.4-.028c-.936,0-1.631,1.284-1.631,1.284l.185-1.178h-1.95l-1.3,8.134Z" transform="translate(-207.416 -213.19)" fill="#edf5e1"/>
        <path id="Path_67122" data-name="Path 67122" d="M305.892,214.654a7.227,7.227,0,0,0-2.536.462l-.3,1.808a6.6,6.6,0,0,1,2.281-.369c.779,0,1.35.087,1.35.723a1.339,1.339,0,0,1-.07.528s-.614-.052-.9-.052c-1.811,0-3.711.774-3.711,3.111a1.99,1.99,0,0,0,2.021,2.262,2.714,2.714,0,0,0,2.147-.964l-.068.8h1.845l.822-5.781C308.769,214.733,306.635,214.654,305.892,214.654Zm.45,4.7c.04.353-.22,2.009-1.483,2.009a.763.763,0,0,1-.818-.793c0-.574.312-1.264,1.844-1.264A1.37,1.37,0,0,1,306.342,219.358Z" transform="translate(-258.592 -212.757)" fill="#edf5e1"/>
        <path id="Path_67123" data-name="Path 67123" d="M339.044,223.421c.61-3.472.723-6.293,2.178-5.779A8.083,8.083,0,0,1,342,215.21a2.209,2.209,0,0,0-.4-.028c-.938,0-1.632,1.284-1.632,1.284l.187-1.178H338.2l-1.305,8.133h2.15Z" transform="translate(-287.184 -213.19)" fill="#edf5e1"/>
      </g>
    </g>
    <g id="Ellipse_716" data-name="Ellipse 716" transform="translate(1231 6191)" fill="none" stroke="#edf5e1" stroke-width="1">
      <circle cx="46.5" cy="46.5" r="46.5" stroke="none"/>
      <circle cx="46.5" cy="46.5" r="46" fill="none"/>
    </g>
  </g>
</svg>
