<svg xmlns="http://www.w3.org/2000/svg" width="93" height="93" viewBox="0 0 93 93">
  <g id="Group_26288" data-name="Group 26288" transform="translate(-1122 -6191)">
    <g id="_033-paypal" data-name="033-paypal" transform="translate(1126.091 6195)">
      <circle id="Ellipse_391" data-name="Ellipse 391" cx="42.5" cy="42.5" r="42.5" transform="translate(-0.091)" fill="#f3f2f2"/>
      <g id="Group_25446" data-name="Group 25446" transform="translate(43.101 32.29)">
        <path id="Path_67124" data-name="Path 67124" d="M317.074,197.135a18.968,18.968,0,0,0-4.266.688l-.331,2.707a11.624,11.624,0,0,1,3.645-.774c1.409-.043,2.237.258,1.947,1.461-4.182,0-7,.858-7.579,3.565-.829,4.64,4.266,4.512,6.3,2.492l-.248,1.116h3.727L321.88,201C322.541,197.864,319.684,197.092,317.074,197.135Zm.249,7.561a1.867,1.867,0,0,1-1.946,1.461c-.828.043-1.574-.689-1.035-1.548.414-.73,1.574-.9,2.278-.9h.912C317.447,204.051,317.405,204.352,317.323,204.7Z" transform="translate(-297.668 -194.213)" fill="#1a80ad"/>
        <path id="Path_67125" data-name="Path 67125" d="M377.634,180.963,374.55,195.14h3.786l3.122-14.177Z" transform="translate(-350.234 -180.963)" fill="#1a80ad"/>
        <path id="Path_67126" data-name="Path 67126" d="M249.9,181.2h-6.932L239.9,195.336h4.026l1.039-4.682h2.864a5.683,5.683,0,0,0,5.77-4.64A3.706,3.706,0,0,0,249.9,181.2Zm-.123,4.812a2.588,2.588,0,0,1-2.368,1.932h-1.868l.83-3.866h1.992A1.456,1.456,0,0,1,249.78,186.014Z" transform="translate(-239.899 -181.159)" fill="#1a80ad"/>
      </g>
      <g id="Group_25447" data-name="Group 25447" transform="translate(6.917 32.227)">
        <path id="Path_67127" data-name="Path 67127" d="M116.6,197.135a17.745,17.745,0,0,0-4.175.688l-.326,2.706a10.8,10.8,0,0,1,3.56-.774c1.391-.043,2.21.258,1.963,1.461-4.131,0-6.913.858-7.486,3.565-.819,4.64,4.213,4.512,6.177,2.492l-.245,1.116H119.8l1.6-7.39C122.045,197.864,119.181,197.092,116.6,197.135Zm.287,7.561a1.9,1.9,0,0,1-1.964,1.461.994.994,0,0,1-.982-1.548c.408-.73,1.554-.9,2.209-.9h.942A7.993,7.993,0,0,0,116.891,204.7Z" transform="translate(-97.315 -194.149)" fill="#1a5b80"/>
        <path id="Path_67128" data-name="Path 67128" d="M176.382,198.272H180.1l.6,6.582,3.642-6.582h3.842l-8.845,15.753h-4.162l2.72-4.63Z" transform="translate(-150.684 -195.083)" fill="#1a5b80"/>
        <path id="Path_67129" data-name="Path 67129" d="M49.55,181.2H42.6l-3.08,14.134H43.6l1-4.682H47.51a5.682,5.682,0,0,0,5.743-4.64A3.693,3.693,0,0,0,49.55,181.2Zm-.125,4.812a2.543,2.543,0,0,1-2.33,1.932H45.181l.874-3.866h2A1.433,1.433,0,0,1,49.425,186.014Z" transform="translate(-39.52 -181.095)" fill="#1a5b80"/>
        <path id="Path_67130" data-name="Path 67130" d="M414.5,182.508v-1.672h-.624v-.224h1.5v.224h-.627v1.672Z" transform="translate(-346.277 -180.611)" fill="#1a5b80"/>
        <path id="Path_67131" data-name="Path 67131" d="M423.575,182.508v-1.9h.376l.449,1.342c.042.125.071.218.09.279.022-.068.055-.17.1-.3l.456-1.318h.337v1.9h-.241V180.92l-.553,1.588h-.225l-.549-1.614v1.614Z" transform="translate(-354.222 -180.611)" fill="#1a5b80"/>
      </g>
    </g>
    <g id="Ellipse_716" data-name="Ellipse 716" transform="translate(1122 6191)" fill="none" stroke="#edf5e1" stroke-width="1">
      <circle cx="46.5" cy="46.5" r="46.5" stroke="none"/>
      <circle cx="46.5" cy="46.5" r="46" fill="none"/>
    </g>
  </g>
</svg>
