<svg xmlns="http://www.w3.org/2000/svg" width="93" height="93" viewBox="0 0 93 93">
  <g id="Group_26286" data-name="Group 26286" transform="translate(-903 -6191)">
    <g id="_010-paypoint" data-name="010-paypoint" transform="translate(907.454 6195)">
      <circle id="Ellipse_383" data-name="Ellipse 383" cx="42.5" cy="42.5" r="42.5" transform="translate(-0.454)" fill="#f4c82e"/>
      <g id="Group_25436" data-name="Group 25436" transform="translate(7.443 30.66)">
        <path id="Path_67059" data-name="Path 67059" d="M42.735,193.371H50.6V187.13c1.68,0,3.361.016,5.041-.012.251-.009.5-.007.752-.041a11.77,11.77,0,0,0,2.908-.537,7.87,7.87,0,0,0,2.222-1.141,6.251,6.251,0,0,0,1.528-1.606,6.964,6.964,0,0,0,.922-2.155,9.808,9.808,0,0,0,.27-2.609,9.066,9.066,0,0,0-.408-2.481,6.056,6.056,0,0,0-1.019-1.935,6.2,6.2,0,0,0-1.637-1.441,7.709,7.709,0,0,0-2.325-.925,14.175,14.175,0,0,0-3.1-.309H42.735ZM50.6,176.848a26.722,26.722,0,0,1,3.733.108,3.366,3.366,0,0,1,.764.226,2.523,2.523,0,0,1,1.467,2.9,2.286,2.286,0,0,1-.611,1.17,2.614,2.614,0,0,1-.572.438,5.742,5.742,0,0,1-2.861.543H50.6S50.6,176.848,50.6,176.848Z" transform="translate(-42.735 -171.938)" fill="#505f7c"/>
        <path id="Path_67060" data-name="Path 67060" d="M125.651,193.772h7.868v-6.239c1.68-.005,3.359.014,5.041-.014.25-.011.5-.007.751-.041a11.849,11.849,0,0,0,2.908-.537,7.858,7.858,0,0,0,2.222-1.141,6.263,6.263,0,0,0,1.527-1.608,7.014,7.014,0,0,0,.924-2.155,9.821,9.821,0,0,0,.269-2.607,9.036,9.036,0,0,0-.408-2.481,6.066,6.066,0,0,0-1.016-1.935,6.237,6.237,0,0,0-1.637-1.441,7.689,7.689,0,0,0-2.326-.926,14.26,14.26,0,0,0-3.1-.307H125.651v21.433Zm7.868-16.523a26.917,26.917,0,0,1,3.732.108,3.341,3.341,0,0,1,.764.224,2.53,2.53,0,0,1,1.467,2.906,2.291,2.291,0,0,1-.611,1.17,2.706,2.706,0,0,1-.57.436,5.733,5.733,0,0,1-2.862.543H133.52v-5.388Z" transform="translate(-110.678 -172.267)" fill="#505f7c"/>
      </g>
      <path id="Path_67061" data-name="Path 67061" d="M125.889,187.408a9.5,9.5,0,0,0,1.044-.226,7.9,7.9,0,0,0,2.159-.912,6.613,6.613,0,0,0,1.664-1.405,6.415,6.415,0,0,0,1.1-1.9,8.732,8.732,0,0,0,.5-2.373,10.179,10.179,0,0,0-.12-2.514,7.093,7.093,0,0,0-.718-2.116,5.882,5.882,0,0,0-1.276-1.614,6.725,6.725,0,0,0-1.859-1.164,9.3,9.3,0,0,0-2.491-.632v14.86Z" transform="translate(-103.717 -141.778)" fill="#f4c82e"/>
      <g id="Group_25437" data-name="Group 25437" transform="translate(44.26 31.991)">
        <path id="Path_67062" data-name="Path 67062" d="M252.15,179.309h4.8a3.283,3.283,0,0,1,2.348.745,2.347,2.347,0,0,1,.585.9,3.527,3.527,0,0,1,.2,1.218,2.887,2.887,0,0,1-.851,2.212,2.713,2.713,0,0,1-1.074.6,11.7,11.7,0,0,1-3.1.2v3.466h-2.9v-9.337Zm2.9,3.98h.708a1.812,1.812,0,0,0,1.172-.291.928.928,0,0,0,.338-.742,1.041,1.041,0,0,0-.293-.746.9.9,0,0,0-.422-.228,6.782,6.782,0,0,0-1.5-.076v2.083Z" transform="translate(-252.15 -179.309)" fill="#505f7c"/>
        <path id="Path_67063" data-name="Path 67063" d="M295.447,194.787a2.769,2.769,0,0,1,.4-1.023,1.94,1.94,0,0,1,.322-.347,2.6,2.6,0,0,1,.439-.3,5.51,5.51,0,0,1,2.33-.414,10.68,10.68,0,0,1,1.872.132,2.652,2.652,0,0,1,.648.2,2.154,2.154,0,0,1,.531.342,2.589,2.589,0,0,1,.713,1.816v2.987a2.589,2.589,0,0,0,.157,1.056c.044.115.1.243.168.382H300.6a1.672,1.672,0,0,1-.237-.574c-.014-.071-.029-.156-.043-.253a3.4,3.4,0,0,1-1.014.7,4.271,4.271,0,0,1-1.6.281,2.681,2.681,0,0,1-1.837-.561,1.874,1.874,0,0,1-.472-.627,1.823,1.823,0,0,1-.156-.756,2.047,2.047,0,0,1,.114-.7,1.645,1.645,0,0,1,.339-.566,1.909,1.909,0,0,1,.643-.433,4.831,4.831,0,0,1,1.025-.3q1.458-.293,1.893-.412a8.588,8.588,0,0,0,.917-.309.915.915,0,0,0-.2-.669,1,1,0,0,0-.695-.19,2.764,2.764,0,0,0-.557.05.878.878,0,0,0-.623.382,1.555,1.555,0,0,0-.176.37Zm4.726,1.624q-.55.2-1.115.338a5.275,5.275,0,0,0-.644.209,1.136,1.136,0,0,0-.355.2.665.665,0,0,0,0,.978.91.91,0,0,0,.627.2,1.609,1.609,0,0,0,.806-.211,1.194,1.194,0,0,0,.645-.86A4.6,4.6,0,0,0,300.173,196.412Z" transform="translate(-287.46 -190.284)" fill="#505f7c"/>
        <path id="Path_67064" data-name="Path 67064" d="M336.785,193.55h2.736l1.395,4.5,1.3-4.5h2.555l-2.685,7.229a7.36,7.36,0,0,1-.463,1.035,2.5,2.5,0,0,1-.473.635,2.174,2.174,0,0,1-.852.458,4.217,4.217,0,0,1-1.2.153c-.187,0-.424-.012-.714-.038s-.628-.064-1.018-.115l-.2-1.808a4.131,4.131,0,0,0,1.248.18,1.215,1.215,0,0,0,.741-.211,1.076,1.076,0,0,0,.261-.295,2.315,2.315,0,0,0,.219-.459Z" transform="translate(-321.501 -190.978)" fill="#505f7c"/>
        <path id="Path_67065" data-name="Path 67065" d="M252.15,239.652h4.8a3.283,3.283,0,0,1,2.348.746,2.336,2.336,0,0,1,.585.9,3.514,3.514,0,0,1,.2,1.217,2.881,2.881,0,0,1-.851,2.21,2.7,2.7,0,0,1-1.074.6,11.64,11.64,0,0,1-3.1.2v3.466h-2.9v-9.339Zm2.9,3.981h.708a1.812,1.812,0,0,0,1.172-.291.928.928,0,0,0,.338-.742,1.041,1.041,0,0,0-.293-.746.9.9,0,0,0-.422-.228,6.773,6.773,0,0,0-1.5-.078v2.084Z" transform="translate(-252.15 -228.755)" fill="#505f7c"/>
        <path id="Path_67066" data-name="Path 67066" d="M297.028,254.066a3.374,3.374,0,0,1,1.228-.752,4.722,4.722,0,0,1,1.593-.251,4.953,4.953,0,0,1,1.783.293,3.227,3.227,0,0,1,1.286.884,3.265,3.265,0,0,1,.627,1.059,3.791,3.791,0,0,1,.209,1.279,3.4,3.4,0,0,1-1.035,2.556,3.359,3.359,0,0,1-1.233.749,5.415,5.415,0,0,1-3.1.04,3.429,3.429,0,0,1-1.162-.62,3.36,3.36,0,0,1-.927-1.187,3.541,3.541,0,0,1-.308-1.5A3.38,3.38,0,0,1,297.028,254.066Zm1.92,3.883a1.2,1.2,0,0,0,1.841.005,1.374,1.374,0,0,0,.27-.555,3.224,3.224,0,0,0,.089-.814,2,2,0,0,0-.363-1.31,1.116,1.116,0,0,0-.9-.429,1.173,1.173,0,0,0-.937.436,1.421,1.421,0,0,0-.278.549,2.954,2.954,0,0,0-.093.777A2.049,2.049,0,0,0,298.948,257.948Z" transform="translate(-288.068 -239.744)" fill="#505f7c"/>
        <path id="Path_67067" data-name="Path 67067" d="M366.872,253.212h2.415v1.1a3.6,3.6,0,0,1,1.1-.965,2.876,2.876,0,0,1,1.351-.289,2.214,2.214,0,0,1,1.685.639,2.042,2.042,0,0,1,.456.816,3.973,3.973,0,0,1,.152,1.163v4.3h-2.6v-3.719a1.35,1.35,0,0,0-.237-.9.84.84,0,0,0-.662-.264.945.945,0,0,0-.764.356,1.194,1.194,0,0,0-.219.5,3.572,3.572,0,0,0-.074.781v3.249h-2.593v-6.764Z" transform="translate(-346.155 -239.742)" fill="#505f7c"/>
        <path id="Path_67068" data-name="Path 67068" d="M414.7,239.652v2.574h1.427v1.9H414.7v2.4a2.7,2.7,0,0,0,.02.357.61.61,0,0,0,.063.213c.244.317.489.216.789.176.135-.029.287-.069.459-.124l.191,1.789a8.454,8.454,0,0,1-1.8.21A3.129,3.129,0,0,1,413,248.9a1.517,1.517,0,0,1-.678-.753,2.566,2.566,0,0,1-.164-.662,7.255,7.255,0,0,1-.055-.975v-2.379h-.956v-1.9h.956v-1.242Z" transform="translate(-382.438 -228.755)" fill="#505f7c"/>
        <rect id="Rectangle_3700" data-name="Rectangle 3700" width="2.593" height="6.764" transform="translate(16.753 13.47)" fill="#505f7c"/>
      </g>
    </g>
    <g id="Ellipse_716" data-name="Ellipse 716" transform="translate(903 6191)" fill="none" stroke="#edf5e1" stroke-width="1">
      <circle cx="46.5" cy="46.5" r="46.5" stroke="none"/>
      <circle cx="46.5" cy="46.5" r="46" fill="none"/>
    </g>
  </g>
</svg>
