<svg xmlns="http://www.w3.org/2000/svg" width="743.317" height="422.484" viewBox="0 0 743.317 422.484">
  <g id="Group_26405" data-name="Group 26405" transform="translate(-50.995 -94.376)">
    <g id="Group_26571" data-name="Group 26571" transform="translate(50.995 94.377)">
      <path id="Path_67432" data-name="Path 67432" d="M531.869,314.1q-1.107,5.82-2.655,11.521c-.112.441-.237.876-.362,1.317H514.5a4.616,4.616,0,0,0-4.611,4.611v40.919c-.435.81-.876,1.614-1.317,2.417-2.279,4.15-4.651,8.254-7.075,12.3A467.776,467.776,0,0,1,340.975,547.617l3.9-8.8-4.295-.3c-31.124-2.128-62.353-4.486-92.746-11.481-31.8-7.318-62.9-20.011-87.819-41.057s-43.2-51.116-45.734-83.643a95.436,95.436,0,0,1,3.34-33.205c5.842-20.762,18.608-39.443,37.026-50.5,28.93-17.357,66.668-13.82,97.166.619s55.312,38.324,79.546,61.8A307.235,307.235,0,0,0,231.953,277.3c-13.543-8.669-27.916-16.389-39.43-27.62s-20-26.961-17.963-42.908c2.312-18.088,17.126-31.816,31.967-42.4,5.928-4.229,12.048-8.24,18.358-11.929,17.8-10.434,37.065-18.306,57.406-21.224,27.554-3.959,57.314,2.049,78.439,20.176,23.8,20.427,33.561,53.369,32.632,84.881,14.663-21.316,37.276-37.632,62.814-38.324,26.513-.711,51.715,16.04,64.995,39S536.829,288.047,531.869,314.1Z" transform="translate(-114.009 -130.052)" fill="#000027"/>
      <path id="Path_67433" data-name="Path 67433" d="M493.148,442.732c15.529-1.368,29.874-2.965,44.921-7.223,14.586-4.127,28.622-11.037,39.005-22.318,11.168-12.134,17.2-27.893,21.45-43.581,2.372-8.746,4.32-17.615,6.159-26.487q2.992-14.439,5.318-29.005,4.629-28.995,6.609-58.331.239-3.561.439-7.124c.082-1.465-2.2-1.461-2.279,0q-1.627,28.917-5.853,57.609c-2.78,18.793-6.337,37.5-10.851,55.961-3.823,15.635-8.774,31.515-18.579,44.53-9.2,12.205-22.476,20.181-36.817,24.95-14.592,4.853-29.978,6.79-45.227,8.231-1.871.177-2.425.345-4.3.51C491.7,440.581,491.685,442.861,493.148,442.732Z" transform="translate(-243.033 -170.158)" fill="#edf5e1"/>
      <path id="Path_67434" data-name="Path 67434" d="M120.921,494.379a247.021,247.021,0,0,1,57.769,10.18,249.663,249.663,0,0,1,53.8,23.418A243.571,243.571,0,0,1,277.8,562.088a249.563,249.563,0,0,1,35.391,42.2,247.083,247.083,0,0,1,25.325,49.1q1.2,3.169,2.319,6.37c.48,1.376,2.683.784,2.2-.606a249.414,249.414,0,0,0-24.194-50.317A252.655,252.655,0,0,0,284.121,565.1,246.327,246.327,0,0,0,239.8,529.729a251.57,251.57,0,0,0-111.7-37.135q-3.587-.3-7.182-.495c-1.466-.08-1.461,2.2,0,2.279Z" transform="translate(-115.993 -253.615)" fill="#edf5e1"/>
      <path id="Path_67435" data-name="Path 67435" d="M282.856,166.925A134.244,134.244,0,0,1,318.1,184.146a165.5,165.5,0,0,1,30.085,26.717A221.491,221.491,0,0,1,373.094,245.2a292.909,292.909,0,0,1,19.807,40.27,364.393,364.393,0,0,1,14.425,43.8,409.383,409.383,0,0,1,9.224,45.764,408.553,408.553,0,0,1,3.97,46.024,364.573,364.573,0,0,1-1.3,44.15,281.211,281.211,0,0,1-6.628,40.646A192.062,192.062,0,0,1,400.629,541q-1.776,3.847-3.769,7.589c-.689,1.294,1.277,2.447,1.968,1.15a175.68,175.68,0,0,0,13.46-33.877,262.356,262.356,0,0,0,8.027-39.851,346.752,346.752,0,0,0,2.652-44.061,404.312,404.312,0,0,0-2.758-46.3,417.032,417.032,0,0,0-8.03-46.262,377.523,377.523,0,0,0-13.425-45.055,313.486,313.486,0,0,0-18.669-41.463,240.368,240.368,0,0,0-23.938-36.131A178.233,178.233,0,0,0,326.9,187.756a141.415,141.415,0,0,0-34.3-19.783q-4.51-1.795-9.144-3.247C282.059,164.286,281.459,166.486,282.856,166.925Z" transform="translate(-171.364 -141.866)" fill="#edf5e1"/>
    </g>
    <ellipse id="Ellipse_411" data-name="Ellipse 411" cx="203.546" cy="8.224" rx="203.546" ry="8.224" transform="translate(99.375 500.412)" fill="#e6e6e6"/>
    <path id="Path_67436" data-name="Path 67436" d="M695.669,445.3a8.648,8.648,0,0,0-.2,1.349l-35.329,20.381-8.587-4.944L642.4,474.07l18.37,13.093,40.3-31.8a8.632,8.632,0,1,0-5.408-10.067Z" transform="translate(-212.911 -194.251)" fill="#ffb8b8"/>
    <path id="Path_67437" data-name="Path 67437" d="M608.345,457.648l27.817,19.826,12.441-15.6-27.041-21.7a10.958,10.958,0,0,0-15.781,2.187h0A10.958,10.958,0,0,0,608.345,457.648Z" transform="translate(-206.046 -194.096)" fill="#0a7c6b"/>
    <path id="Path_67438" data-name="Path 67438" d="M425.519,598.833l9.754,2.555,14.5-36.4-14.395-3.772Z" transform="translate(-80.642 -109.063)" fill="#ffb8b8"/>
    <path id="Path_67439" data-name="Path 67439" d="M0,0H31.688V12.243H12.243A12.243,12.243,0,0,1,0,0H0Z" transform="matrix(-0.967, -0.253, 0.253, -0.967, 371.068, 506.314)" fill="#2f2e41"/>
    <path id="Path_67440" data-name="Path 67440" d="M529.465,606.569l9.926-1.773-2.115-39.128-14.649,2.617Z" transform="translate(-97.887 -109.854)" fill="#ffb8b8"/>
    <path id="Path_67441" data-name="Path 67441" d="M0,0H31.688V12.243H12.243A12.243,12.243,0,0,1,0,0H0Z" transform="translate(462.288 500.741) rotate(169.872)" fill="#2f2e41"/>
    <path id="Path_67442" data-name="Path 67442" d="M617.435,395.026c2.446.6,4.436,3.088,5.63,5.975a41.683,41.683,0,0,1,2.224,9.387c.939,5.968,1.841,12.429-.1,17.956-2.276,6.478-8.341,9.872-13.6,8.277s-9.445-7.58-10.874-14.47a35.043,35.043,0,0,1,2.405-20.63c1.494-3.4,3.554-6.541,6.292-8.076a6.209,6.209,0,0,1,8.28,1.725" transform="translate(-205.402 -186.066)" fill="#2f2e41"/>
    <path id="Path_67443" data-name="Path 67443" d="M620.154,526.948l18.9,169.247-15.607,5.926L594.66,588.629,554.585,692.4l-17.083.949s23.439-161.465,40.809-165.135Z" transform="translate(-194.282 -209.934)" fill="#2f2e41"/>
    <circle id="Ellipse_412" data-name="Ellipse 412" cx="20.199" cy="20.199" r="20.199" transform="translate(389.801 190.161)" fill="#ffb8b8"/>
    <path id="Path_67444" data-name="Path 67444" d="M621.149,431.513l-21.828-2.847s-14.236,17.083-13.287,46.5-2.373,38.437-2.373,38.437l45.513.822C622.595,505.382,650.114,453.424,621.149,431.513Z" transform="translate(-202.48 -192.48)" fill="#47988c"/>
    <path id="Path_67445" data-name="Path 67445" d="M632.977,528.172a8.649,8.649,0,0,0-1.358.117l-27.925-29.727,2.847-9.491L592.78,482.9l-8.542,20.879,40.176,31.958a8.632,8.632,0,1,0,8.563-7.568Z" transform="translate(-202.582 -202.112)" fill="#ffb8b8"/>
    <path id="Path_67446" data-name="Path 67446" d="M603.519,444.72l-12.934,31.616,18.032,8.541,14.933-31.289a10.958,10.958,0,0,0-5.74-14.862h0a10.958,10.958,0,0,0-14.291,5.993Z" transform="translate(-203.709 -194.121)" fill="#0a7c6b"/>
    <path id="Path_67447" data-name="Path 67447" d="M605.3,410.252c3.165-1.826,3.5-6.23,3.073-9.859s-1.149-7.673.984-10.64c2.546-3.541,7.66-3.611,12.019-3.727s9.668-1.392,10.8-5.6c.746-2.783-.851-5.77-3.142-7.517s-5.158-2.519-7.945-3.254c-6.233-1.642-12.67-3.3-19.052-2.4a24.29,24.29,0,0,0-20.694,27.123c1.033,8.1,2.531,11.639,1.548,15.211-1.832,6.654-9.73,10.928-9.887,17.827-.123,5.4,4.644,9.56,9.295,12.3a31.2,31.2,0,0,0,11.922,4.527c4.251.509,8.828-.465,12-3.347,4.085-3.716,5.1-9.926,3.924-15.322s-4.176-10.189-7.148-14.844" transform="translate(-200.587 -181.529)" fill="#2f2e41"/>
    <path id="Path_67448" data-name="Path 67448" d="M1012.359,426.948H720.4a7.413,7.413,0,0,0-7.4,7.4V621.859a7.413,7.413,0,0,0,7.4,7.4h291.955a7.413,7.413,0,0,0,7.4-7.4V434.349A7.413,7.413,0,0,0,1012.359,426.948Zm5.757,194.911a5.763,5.763,0,0,1-5.757,5.757H720.4a5.763,5.763,0,0,1-5.757-5.757V434.349a5.763,5.763,0,0,1,5.757-5.757h291.955a5.763,5.763,0,0,1,5.757,5.757Z" transform="translate(-225.449 -192.175)" fill="#3f3d56"/>
    <path id="Path_67449" data-name="Path 67449" d="M786.323,527.479H740.268a7,7,0,0,1-6.99-6.99V474.434a7,7,0,0,1,6.99-6.99h46.055a7,7,0,0,1,6.991,6.99v46.055A7,7,0,0,1,786.323,527.479Z" transform="translate(-229.05 -199.366)" fill="#000027"/>
    <path id="Path_67450" data-name="Path 67450" d="M1000.885,597.644H739.359a5.346,5.346,0,0,1,0-10.691h261.526a5.346,5.346,0,1,1,0,10.691Z" transform="translate(-229.181 -220.59)" fill="#ccc"/>
    <path id="Path_67451" data-name="Path 67451" d="M1001.1,566.144H739.572a5.346,5.346,0,0,1,0-10.691H1001.1a5.346,5.346,0,0,1,0,10.691Z" transform="translate(-229.219 -214.996)" fill="#ccc"/>
    <path id="Path_67452" data-name="Path 67452" d="M892.226,523.134H853.572a5.346,5.346,0,1,1,0-10.691h38.653a5.346,5.346,0,1,1,0,10.691Z" transform="translate(-249.464 -207.358)" fill="#ccc"/>
    <path id="Path_67453" data-name="Path 67453" d="M1021.344,491.144H853.572a5.346,5.346,0,0,1,0-10.691h167.772a5.346,5.346,0,0,1,0,10.691Z" transform="translate(-249.464 -201.676)" fill="#ccc"/>
    <path id="Path_67454" data-name="Path 67454" d="M865.363,629.644h-126a5.346,5.346,0,0,1,0-10.691h126a5.346,5.346,0,0,1,0,10.691Z" transform="translate(-229.181 -226.273)" fill="#ccc"/>
  </g>
</svg>
