<svg xmlns="http://www.w3.org/2000/svg" width="93" height="93" viewBox="0 0 93 93">
  <g id="Group_26287" data-name="Group 26287" transform="translate(-1013 -6191)">
    <g id="_030-visa" data-name="030-visa" transform="translate(1017 6195)">
      <ellipse id="Ellipse_388" data-name="Ellipse 388" cx="42.5" cy="42.306" rx="42.5" ry="42.306" transform="translate(0 0.389)" fill="#f3f2f2"/>
      <g id="Group_25443" data-name="Group 25443" transform="translate(13.581 31.022)">
        <path id="Path_67099" data-name="Path 67099" d="M175.483,194.708l3.274-19.335h5.3l-3.274,19.335Z" transform="translate(-158.014 -175.061)" fill="#293688"/>
        <path id="Path_67100" data-name="Path 67100" d="M237.152,174.459a13.767,13.767,0,0,0-4.752-.812c-5.239,0-8.93,2.623-8.961,6.381-.029,2.778,2.634,4.327,4.647,5.253,2.063.946,2.757,1.553,2.747,2.4-.013,1.3-1.649,1.888-3.173,1.888a11.187,11.187,0,0,1-4.99-1.015l-.683-.308-.745,4.328a16.861,16.861,0,0,0,5.907,1.032c5.572,0,9.191-2.592,9.232-6.606.02-2.2-1.393-3.873-4.451-5.253-1.853-.893-2.989-1.49-2.976-2.4,0-.8.961-1.663,3.036-1.663a9.83,9.83,0,0,1,3.969.741l.474.223.72-4.191Z" transform="translate(-195.509 -173.647)" fill="#293688"/>
        <path id="Path_67101" data-name="Path 67101" d="M311.292,175.373a2.635,2.635,0,0,0-2.746,1.647l-7.857,17.689H306.3l1.091-2.963H314.1l.623,2.963h4.99l-4.365-19.335h-4.055Zm-2.409,12.5c.438-1.113,2.111-5.4,2.111-5.4-.03.051.436-1.119.7-1.845l.359,1.666s1.014,4.615,1.227,5.583h-4.4Z" transform="translate(-260.611 -175.061)" fill="#293688"/>
        <path id="Path_67102" data-name="Path 67102" d="M86.541,188.627l-.467-2.651a15.1,15.1,0,0,0-7.335-8.108l4.684,16.84h5.614l8.419-19.335H91.843Z" transform="translate(-78.739 -175.061)" fill="#293688"/>
      </g>
      <g id="Group_25444" data-name="Group 25444" transform="translate(4.491 30.968)">
        <path id="Path_67103" data-name="Path 67103" d="M46.823,175.373v.312c6.652,1.6,11.27,5.645,13.1,10.291L58,177.023a2.279,2.279,0,0,0-2.444-1.65Z" transform="translate(-43.189 -175.373)" fill="#f7981d"/>
        <path id="Path_67104" data-name="Path 67104" d="M64.511,369.3a42.583,42.583,0,0,0,37.816-23.064H26.7A42.583,42.583,0,0,0,64.511,369.3Z" transform="translate(-26.696 -315.38)" fill="#f7981d"/>
      </g>
      <path id="Path_67105" data-name="Path 67105" d="M66.029,0A42.582,42.582,0,0,0,28.548,22.41h74.963A42.587,42.587,0,0,0,66.029,0Z" transform="translate(-23.723)" fill="#293688"/>
    </g>
    <g id="Ellipse_716" data-name="Ellipse 716" transform="translate(1013 6191)" fill="none" stroke="#edf5e1" stroke-width="1">
      <circle cx="46.5" cy="46.5" r="46.5" stroke="none"/>
      <circle cx="46.5" cy="46.5" r="46" fill="none"/>
    </g>
  </g>
</svg>
