<svg xmlns="http://www.w3.org/2000/svg" width="93" height="93" viewBox="0 0 93 93">
  <g id="Group_26282" data-name="Group 26282" transform="translate(-425 -6191)">
    <g id="Ellipse_715" data-name="Ellipse 715" transform="translate(425 6191)" fill="none" stroke="#edf5e1" stroke-width="1">
      <circle cx="46.5" cy="46.5" r="46.5" stroke="none"/>
      <circle cx="46.5" cy="46.5" r="46" fill="none"/>
    </g>
    <g id="_001-wepay" data-name="001-wepay" transform="translate(429 6195)">
      <circle id="Ellipse_382" data-name="Ellipse 382" cx="42.5" cy="42.5" r="42.5" transform="translate(0)" fill="#1b7ec1"/>
      <g id="Group_25435" data-name="Group 25435" transform="translate(5.199 36.441)">
        <path id="Path_67054" data-name="Path 67054" d="M30.185,202.491c1.252-.131,2.747-.02,4.093-.056.481,2.583.991,5.138,1.457,7.736.824-2.5,1.456-5.2,2.242-7.736h3.981c.685,2.6,1.455,5.121,2.131,7.736.608-2.475,1.036-5.131,1.512-7.736H49.7c-1.048,4.65-2.053,9.345-3.083,14.016H42.464c-.787-2.86-1.68-5.609-2.523-8.409-.9,2.744-1.656,5.633-2.524,8.409H33.268Q31.79,209.409,30.185,202.491Z" transform="translate(-30.185 -202.34)" fill="#eaf3f8"/>
        <path id="Path_67055" data-name="Path 67055" d="M150.277,202.482h1.176c4.843.221,7.137,2.99,6.952,8.24h-9.867c.029,2.113,1.712,3.29,3.532,2.579a2.937,2.937,0,0,0,1.288-1.007l4.654.448a1.46,1.46,0,0,1-.336.784,6.994,6.994,0,0,1-6.055,2.972h-1.345c-3.944-.171-6.473-2.414-6.73-6.224C143.229,205.508,145.937,202.8,150.277,202.482Zm-.843,3.588a3.3,3.3,0,0,0-.9,2.243h4.877A2.457,2.457,0,0,0,149.435,206.07Z" transform="translate(-123.088 -202.387)" fill="#eaf3f8"/>
        <path id="Path_67056" data-name="Path 67056" d="M239.533,202.163s7.911-.773,10.148.672a4.067,4.067,0,0,1,1.625,3.534c0,3.764-3.1,4.86-7.4,4.483l-.056,5.1h-4.317V202.163Zm7.626,4.318c-.007-1.468-1.56-1.695-3.253-1.57-.13.933-.02,2.111-.056,3.138C245.538,208.175,247.164,207.95,247.159,206.481Z" transform="translate(-201.779 -201.956)" fill="#eaf3f8"/>
        <path id="Path_67057" data-name="Path 67057" d="M302.887,203.1h4.653l5.158,13.736-4.483.056-.617-2.242H302.72l-.729,2.242h-4.317Zm.729,8.578h3.029l-1.571-4.991Z" transform="translate(-249.449 -202.889)" fill="#eaf3f8"/>
        <path id="Path_67058" data-name="Path 67058" d="M369.091,203.152l4.6-.057,2.861,4.654,2.857-4.654h4.543l-5.214,8.018v5.774h-4.318v-5.718Z" transform="translate(-307.989 -202.889)" fill="#eaf3f8"/>
      </g>
    </g>
  </g>
</svg>
